<?xml version="1.0" encoding="UTF-8"?>
<!DOCTYPE svg PUBLIC "-//W3C//DTD SVG 1.1//EN" "http://www.w3.org/Graphics/SVG/1.1/DTD/svg11.dtd">
<!-- Creator: CorelDRAW Home & Student X7 -->
<!-- ?xml-stylesheet href="nomeroff_net.css" type="text/css"? -->
<svg xmlns="http://www.w3.org/2000/svg" xml:space="preserve" width="56.3049mm" height="12.2674mm" version="1.1" style="shape-rendering:geometricPrecision; text-rendering:geometricPrecision; image-rendering:optimizeQuality; fill-rule:evenodd; clip-rule:evenodd"
viewBox="0 0 1327 289"
 xmlns:xlink="http://www.w3.org/1999/xlink">
 <style>
    @charset "UTF-8";
    .fil1 {fill:#777777}
    .fil0 {fill:black;fill-rule:nonzero}
 </style> 
 <g id="Слой_x0020_1">
  <metadata id="CorelCorpID_0Corel-Layer"/>
  <path class="fil0" d="M156 216l-33 0 -36 -58c-5,-7 -10,-16 -14,-27 2,8 3,16 3,22l0 63 -33 0 0 -131 38 0 31 48c6,10 11,18 14,25 -2,-11 -3,-23 -3,-34l0 -39 33 0 0 131z"/>
  <path id="1" class="fil0" d="M226 218c-16,0 -29,-5 -39,-15 -9,-10 -14,-22 -14,-36 0,-14 5,-26 15,-36 10,-10 23,-15 39,-15 16,0 29,5 39,15 9,9 14,21 14,36 0,15 -5,27 -15,36 -9,10 -23,15 -39,15zm1 -23c5,0 9,-3 10,-9 2,-7 2,-13 2,-20 0,-9 -1,-16 -2,-20 -2,-4 -6,-6 -10,-6 -5,0 -8,2 -10,7 -2,4 -3,11 -3,20 0,11 1,19 3,22 2,4 5,6 10,6z"/>
  <path id="2" class="fil0" d="M443 216l-37 0 0 -61c0,-4 -1,-7 -2,-9 -1,-1 -3,-2 -6,-2 -7,0 -11,5 -11,16l0 56 -37 0 0 -61c0,-8 -3,-12 -9,-12 -6,0 -9,4 -9,12l0 61 -37 0 0 -98 35 0 0 14c6,-11 15,-16 26,-16 13,0 22,5 28,16 6,-11 16,-16 29,-16 6,0 12,2 17,4 4,3 8,6 10,10 2,5 3,11 3,20l0 66z"/>
  <path id="3" class="fil0" d="M528 181l36 2c-2,10 -8,18 -16,25 -9,7 -21,10 -35,10 -17,0 -30,-5 -40,-14 -10,-10 -15,-21 -15,-36 0,-14 5,-27 15,-37 10,-10 23,-15 39,-15 15,0 28,5 38,15 9,9 14,22 14,38 0,2 0,3 0,6l-65 0c0,6 1,11 3,14 2,3 6,4 12,4 8,0 13,-4 14,-12zm-2 -25c0,-7 -2,-11 -4,-14 -3,-2 -6,-3 -10,-3 -9,0 -13,6 -13,17l27 0z"/>
  <path id="4" class="fil0" d="M616 216l-37 0 0 -98 32 0 0 20c4,-14 12,-22 26,-22 1,0 3,0 5,1l0 34c-3,-1 -5,-1 -7,-1 -13,0 -19,7 -19,21l0 45z"/>
  <path id="5" class="fil0" d="M702 218c-16,0 -29,-5 -39,-15 -9,-10 -14,-22 -14,-36 0,-14 5,-26 15,-36 10,-10 23,-15 39,-15 16,0 29,5 39,15 9,9 14,21 14,36 0,15 -5,27 -15,36 -9,10 -23,15 -39,15zm1 -23c5,0 9,-3 10,-9 2,-7 2,-13 2,-20 0,-9 -1,-16 -2,-20 -2,-4 -6,-6 -10,-6 -5,0 -8,2 -10,7 -2,4 -3,11 -3,20 0,11 1,19 3,22 2,4 5,6 10,6z"/>
  <path id="6" class="fil0" d="M813 143l0 73 -37 0 0 -73 -14 0 0 -25 14 0c0,-8 1,-14 2,-18 0,-3 2,-7 5,-11 3,-3 6,-6 11,-8 5,-2 11,-3 19,-3 9,0 17,1 25,2l0 25c-6,0 -11,-1 -14,-1 -3,0 -5,1 -8,2 -2,1 -4,4 -4,9l0 3 25 0 0 25 -24 0z"/>
  <path id="7" class="fil0" d="M894 143l0 73 -36 0 0 -73 -15 0 0 -25 15 0c0,-8 0,-14 1,-18 0,-3 2,-7 5,-11 3,-3 7,-6 11,-8 5,-2 11,-3 19,-3 9,0 17,1 25,2l0 25c-6,0 -10,-1 -13,-1 -3,0 -6,1 -9,2 -2,1 -3,4 -3,9l0 3 24 0 0 25 -24 0z"/>
  <path id="8" class="fil0" d="M1092 216l-33 0 -36 -58c-4,-7 -9,-16 -13,-27 2,8 3,16 3,22l0 63 -33 0 0 -131 38 0 31 48c6,10 10,18 14,25 -3,-11 -4,-23 -4,-34l0 -39 33 0 0 131z"/>
  <path id="9" class="fil0" d="M1179 181l36 2c-2,10 -8,18 -16,25 -9,7 -21,10 -35,10 -17,0 -30,-5 -40,-14 -10,-10 -15,-21 -15,-36 0,-14 5,-27 15,-37 10,-10 23,-15 39,-15 15,0 28,5 38,15 9,9 14,22 14,38 0,2 0,3 0,6l-65 0c0,6 1,11 3,14 2,3 6,4 12,4 8,0 13,-4 14,-12zm-2 -25c0,-7 -2,-11 -4,-14 -3,-2 -6,-3 -10,-3 -9,0 -13,6 -13,17l27 0z"/>
  <path id="10" class="fil0" d="M1291 118l0 25 -20 0 0 36c0,5 1,8 3,9 2,1 4,1 6,1 3,0 6,0 11,-1l0 27c-8,2 -15,2 -23,2 -12,0 -20,-2 -26,-7 -5,-5 -8,-13 -8,-25l0 -11 0 -31 -15 0 0 -25 15 0 1 -32 36 0 0 32 20 0z"/>
  <path class="fil1" d="M0 85l13 203 914 -59 -183 0 -720 47 -11 -180 11 -1 0 -11 -24 1zm280 -18l183 0 840 -54 12 179 -11 1 0 12 23 -2 -13 -203 -1034 67z"/>
  <path class="fil0" d="M808 288l-13 0 0 -23c0,-2 -1,-3 -1,-4 -1,0 -1,0 -2,0 -2,0 -4,1 -4,5l0 22 -13 0 0 -37 12 0 0 6c2,-4 5,-6 10,-6 3,0 5,0 6,1 2,1 3,2 4,4 1,2 1,5 1,9l0 23z"/>
  <path id="1" class="fil0" d="M832 289c-6,0 -10,-2 -14,-6 -3,-3 -5,-8 -5,-13 0,-6 2,-10 5,-14 4,-4 8,-5 14,-5 5,0 10,1 13,5 4,4 5,8 5,14 0,5 -1,10 -5,14 -3,3 -8,5 -13,5zm0 -9c2,0 3,-1 4,-3 0,-3 0,-5 0,-8 0,-3 0,-6 -1,-7 0,-2 -2,-2 -3,-2 -2,0 -3,0 -4,2 0,2 -1,4 -1,8 0,4 1,7 1,8 1,2 2,2 4,2z"/>
  <path id="2" class="fil0" d="M907 288l-13 0 0 -23c0,-1 0,-2 -1,-3 0,-1 -1,-1 -2,-1 -2,0 -4,2 -4,6l0 21 -12 0 0 -23c0,-3 -1,-4 -4,-4 -2,0 -3,1 -3,4l0 23 -13 0 0 -37 12 0 0 5c3,-4 6,-5 10,-5 4,0 7,1 9,5 2,-4 6,-5 10,-5 2,0 4,0 6,1 2,1 3,2 4,4 0,1 1,4 1,7l0 25z"/>
  <path id="3" class="fil0" d="M936 275l12 1c0,4 -2,7 -5,9 -3,3 -7,4 -12,4 -6,0 -11,-2 -14,-5 -3,-4 -5,-8 -5,-14 0,-5 2,-10 5,-14 3,-4 8,-5 13,-5 6,0 10,1 13,5 4,4 5,8 5,15 0,0 0,1 0,2l-22 0c0,2 0,4 1,5 1,1 2,2 4,2 3,0 5,-2 5,-5zm-1 -10c0,-2 0,-4 -1,-5 -1,0 -2,-1 -4,-1 -3,0 -4,2 -4,6l9 0z"/>
  <path id="4" class="fil0" d="M966 288l-12 0 0 -37 11 0 0 8c1,-6 4,-8 9,-8 0,0 1,0 1,0l0 13c0,-1 -1,-1 -2,-1 -4,0 -7,3 -7,8l0 17z"/>
  <path id="5" class="fil0" d="M996 289c-5,0 -10,-2 -13,-6 -4,-3 -5,-8 -5,-13 0,-6 2,-10 5,-14 3,-4 8,-5 13,-5 6,0 10,1 14,5 3,4 5,8 5,14 0,5 -2,10 -5,14 -4,3 -8,5 -14,5zm0 -9c2,0 4,-1 4,-3 1,-3 1,-5 1,-8 0,-3 -1,-6 -1,-7 -1,-2 -2,-2 -4,-2 -1,0 -2,0 -3,2 -1,2 -1,4 -1,8 0,4 0,7 1,8 1,2 2,2 3,2z"/>
  <path id="6" class="fil0" d="M1034 261l0 27 -12 0 0 -27 -5 0 0 -10 5 0c0,-3 0,-5 0,-6 1,-2 1,-3 2,-5 1,-1 2,-2 4,-3 2,0 4,-1 7,-1 3,0 5,0 8,1l0 9c-2,0 -3,0 -5,0 -1,0 -2,0 -2,1 -1,0 -2,1 -2,3l0 1 9 0 0 10 -9 0z"/>
  <path id="7" class="fil0" d="M1062 261l0 27 -12 0 0 -27 -5 0 0 -10 5 0c0,-3 0,-5 0,-6 1,-2 1,-3 2,-5 1,-1 2,-2 4,-3 2,0 4,-1 7,-1 3,0 5,0 8,1l0 9c-2,0 -3,0 -4,0 -1,0 -2,0 -3,1 -1,0 -2,1 -2,3l0 1 9 0 0 10 -9 0z"/>
  <path id="8" class="fil0" d="M1087 275l0 13 -13 0 0 -13 13 0z"/>
  <path id="9" class="fil0" d="M1127 288l-14 0 0 -23c0,-2 0,-3 -1,-4 0,0 -1,0 -2,0 -2,0 -3,1 -3,5l0 22 -13 0 0 -37 12 0 0 6c2,-4 5,-6 10,-6 2,0 4,0 6,1 2,1 3,2 3,4 1,2 2,5 2,9l0 23z"/>
  <path id="10" class="fil0" d="M1156 275l12 1c0,4 -2,7 -5,9 -3,3 -7,4 -13,4 -5,0 -10,-2 -13,-5 -4,-4 -5,-8 -5,-14 0,-5 1,-10 5,-14 3,-4 8,-5 13,-5 6,0 10,1 13,5 4,4 5,8 5,15 0,0 0,1 0,2l-22 0c0,2 0,4 1,5 0,1 2,2 4,2 3,0 4,-2 5,-5zm-1 -10c0,-2 -1,-4 -1,-5 -1,0 -2,-1 -4,-1 -3,0 -4,2 -4,6l9 0z"/>
  <path id="11" class="fil0" d="M1194 251l0 10 -6 0 0 13c0,2 0,3 1,4 0,0 1,0 2,0 1,0 2,0 3,0l0 10c-2,1 -5,1 -7,1 -4,0 -7,-1 -9,-3 -2,-2 -3,-5 -3,-9l0 -5 0 -11 -5 0 0 -10 5 0 0 -12 13 0 0 12 6 0z"/>
  <path id="12" class="fil0" d="M1211 275l0 13 -13 0 0 -13 13 0z"/>
  <path id="13" class="fil0" d="M1250 251l0 37 -12 0 0 -6c-2,5 -5,7 -10,7 -4,0 -6,-1 -8,-3 -2,-2 -3,-5 -3,-8l0 -27 14 0 0 24c0,1 0,2 0,3 1,0 1,1 2,1 2,0 3,-1 3,-2 1,-1 1,-2 1,-3l0 -23 13 0z"/>
  <path id="14" class="fil0" d="M1291 288l-12 0c-1,-1 -1,-3 -1,-5 -2,4 -6,6 -11,6 -4,0 -7,-1 -9,-3 -2,-2 -3,-5 -3,-8 0,-4 2,-7 5,-9 4,-3 9,-4 18,-5l0 -1c0,-1 -1,-2 -1,-3 -1,0 -2,-1 -3,-1 -3,0 -5,2 -5,4l-13 -1c2,-8 8,-11 18,-11 3,0 5,0 8,0 2,1 4,2 5,3 1,2 2,3 3,4 0,2 0,4 0,8l0 15c0,3 1,5 1,7zm-13 -17c-6,1 -9,3 -9,6 0,2 1,3 4,3 1,0 2,0 3,-1 1,-1 2,-3 2,-6l0 -2z"/>
 </g>
</svg>
